<svg width="375" height="225" viewBox="0 0 375 225" fill="none" xmlns="http://www.w3.org/2000/svg">
<g opacity="0.1">
<path d="M123.146 191.103L114.575 177.052L106 163L123.146 163L140.29 163L131.718 177.052L123.146 191.103Z" fill="white"/>
<path d="M296.003 224.002L278.505 195.501L261 167L296.003 167L331 167L313.502 195.501L296.003 224.002Z" fill="white"/>
<path d="M2.43467 -33L27.9191 9.39156L53.413 51.7831L2.43466 51.7831L-48.5342 51.7831L-23.0498 9.39155L2.43467 -33Z" fill="white"/>
<path d="M54.9873 113.006L39.9965 89.161L25.0001 65.3157L54.9873 65.3158L84.969 65.3158L69.9782 89.161L54.9873 113.006Z" fill="white"/>
<path d="M175.63 -1.16205L182.376 9.43584L189.124 20.0337L175.63 20.0337L162.138 20.0337L168.884 9.43584L175.63 -1.16205Z" fill="white"/>
<path d="M20.4943 109.196L13.7484 98.5979L7.00006 88L20.4943 88L33.9861 88L27.2402 98.5979L20.4943 109.196Z" fill="white"/>
<path d="M48.4918 124L55.2376 134.598L61.986 145.196L48.4918 145.196L35 145.196L41.7459 134.598L48.4918 124Z" fill="white"/>
<path d="M229.492 167L236.238 177.598L242.986 188.196L229.492 188.196L216 188.196L222.746 177.598L229.492 167Z" fill="white"/>
<path d="M243.494 218.196L236.748 207.598L230 197L243.494 197L256.986 197L250.24 207.598L243.494 218.196Z" fill="white"/>
<path d="M217.494 36.1957L210.748 25.5979L204 15L217.494 15L230.986 15L224.24 25.5979L217.494 36.1957Z" fill="white"/>
<path d="M153.494 201.196L146.748 190.598L140 180L153.494 180L166.986 180L160.24 190.598L153.494 201.196Z" fill="white"/>
<path d="M112.494 98.1957L105.748 87.5979L99.0001 77L112.494 77L125.986 77L119.24 87.5979L112.494 98.1957Z" fill="white"/>
<path d="M20.4943 196.196L13.7484 185.598L7.00005 175L20.4943 175L33.9861 175L27.2402 185.598L20.4943 196.196Z" fill="white"/>
<path d="M356.574 65.6905L341.584 41.8452L326.587 18L356.574 18L386.556 18L371.565 41.8452L356.574 65.6905Z" fill="white"/>
<path d="M72.2667 156.071L87.2575 179.916L102.254 203.761L72.2667 203.761L42.285 203.761L57.2759 179.916L72.2667 156.071Z" fill="white"/>
<path d="M296.231 117.223L274.12 82.7802L252 48.3371L296.231 48.3371L340.454 48.3371L318.343 82.7803L296.231 117.223Z" fill="white"/>
<path d="M339.558 140.625L326.441 120.313L313.319 100L339.558 100L365.792 100L352.675 120.313L339.558 140.625Z" fill="white"/>
<path d="M217.239 98.6252L204.122 78.3126L191 58L217.239 58L243.473 58L230.356 78.3126L217.239 98.6252Z" fill="white"/>
<path d="M92.4888 9L102.233 24.5L111.981 40L92.4888 40L73 40L82.7444 24.5L92.4888 9Z" fill="white"/>
<path d="M168.239 66L176.859 79.2473L185.482 92.4947H168.239H151L159.62 79.2473L168.239 66Z" fill="white"/>
<path d="M366.24 190.252L354.622 171.705L343 153.159L366.24 153.159L389.476 153.159L377.858 171.705L366.24 190.252Z" fill="white"/>
<path d="M350.799 -19.4674L358.294 -7.98636L365.793 3.49468L350.799 3.49468L335.808 3.49468L343.304 -7.98636L350.799 -19.4674Z" fill="white"/>
<path d="M183.114 119.674L198.479 143.52L213.851 167.365L183.114 167.365L152.383 167.365L167.748 143.52L183.114 119.674Z" fill="white"/>
<path d="M143.992 64.0273L134.998 49.0137L126 34L143.992 34L161.981 34L152.987 49.0137L143.992 64.0273Z" fill="white"/>
<path d="M324.992 143.027L315.998 128.014L307 113L324.992 113L342.981 113L333.987 128.014L324.992 143.027Z" fill="white"/>
<path d="M247.352 107.707L257.096 122.721L266.844 137.735L247.352 137.735L227.864 137.735L237.608 122.721L247.352 107.707Z" fill="white"/>
<path d="M120.31 149.702L110.566 134.688L100.818 119.674L120.31 119.674L139.798 119.674L130.054 134.688L120.31 149.702Z" fill="white"/>
<path d="M261.739 11L271.108 26.0136L280.481 41.0273H261.739H243L252.369 26.0136L261.739 11Z" fill="white"/>
<path d="M279.742 33.0273L270.373 18.0136L261 2.99995L279.742 2.99996L298.481 2.99996L289.111 18.0136L279.742 33.0273Z" fill="white"/>
</g>
</svg>
